<?xml version="1.0" encoding="UTF-8"?>
<svg width="24px" height="26px" viewBox="0 0 24 26" version="1.1" xmlns="http://www.w3.org/2000/svg" xmlns:xlink="http://www.w3.org/1999/xlink">
    <!-- Generator: Sketch 55.2 (78181) - https://sketchapp.com -->
    <title>Shape</title>
    <desc>Created with Sketch.</desc>
    <g id="Website" stroke="none" stroke-width="1" fill="none" fill-rule="evenodd">
        <g id="Desktop-HD" transform="translate(-1290.000000, -25.000000)" fill="#000000" fill-rule="nonzero">
            <g id="noun_User_2082617" transform="translate(1289.000000, 25.000000)">
                <path d="M24.93,23.79 C23.0089809,18.8783101 18.2739939,15.6459619 13,15.6459619 C7.72600608,15.6459619 2.99101908,18.8783101 1.07,23.79 C0.921007827,24.1260548 0.968404863,24.5167609 1.19342732,24.8074435 C1.41844978,25.0981261 1.78481395,25.2419142 2.1474817,25.1818842 C2.51014944,25.1218542 2.81064245,24.8676856 2.93,24.52 C4.54929805,20.3716522 8.54680841,17.6408014 13,17.6408014 C17.4531916,17.6408014 21.4507019,20.3716522 23.07,24.52 C23.2184243,24.9046519 23.5877072,25.1587821 24,25.16 C24.1234818,25.1610635 24.2459139,25.1372572 24.36,25.09 C24.6086208,24.9940105 24.8086401,24.8027498 24.9156583,24.5586732 C25.0226765,24.3145967 25.027839,24.0378988 24.93,23.79 Z M13,13.64 C16.5346224,13.64 19.4,10.7746224 19.4,7.24 C19.4,3.7053776 16.5346224,0.84 13,0.84 C9.4653776,0.84 6.6,3.7053776 6.6,7.24 C6.60550638,10.7723391 9.46766093,13.6344936 13,13.64 Z M13,2.84 C15.4300529,2.84 17.4,4.8099471 17.4,7.24 C17.4,9.6700529 15.4300529,11.64 13,11.64 C10.5699471,11.64 8.6,9.6700529 8.6,7.24 C8.60549894,4.81222848 10.5722285,2.84549894 13,2.84 Z" id="Shape"></path>
            </g>
        </g>
    </g>
</svg>