<?xml version="1.0" encoding="UTF-8"?>
<svg width="22px" height="26px" viewBox="0 0 22 26" version="1.1" xmlns="http://www.w3.org/2000/svg" xmlns:xlink="http://www.w3.org/1999/xlink">
    <!-- Generator: Sketch 55.2 (78181) - https://sketchapp.com -->
    <title>Shape</title>
    <desc>Created with Sketch.</desc>
    <g id="Website" stroke="none" stroke-width="1" fill="none" fill-rule="evenodd">
        <g id="Desktop-HD" transform="translate(-1344.000000, -25.000000)" fill="#000000" fill-rule="nonzero">
            <g id="noun_Shopping-Bag_970813" transform="translate(1344.000000, 25.000000)">
                <path d="M11,0 C7.75945946,0 5.14324324,2.60879369 5.14324324,5.83314543 L5.14324324,6.6832018 L0.683783784,6.6832018 C0.297297297,6.6832018 0,6.97632469 0,7.35738444 L0,21.2514092 C0,23.8602029 2.17027027,26 4.81621622,26 L17.1837838,26 C19.8297297,26 22,23.8602029 22,21.2514092 L22,7.35738444 C22,6.97632469 21.7027027,6.6832018 21.3162162,6.6832018 L16.8567568,6.6832018 L16.8567568,5.83314543 C16.8567568,2.60879369 14.2405405,0 11,0 Z M6.54054054,5.83314543 C6.54054054,3.37091319 8.53243243,1.34836528 11,1.34836528 C13.4675676,1.34836528 15.4594595,3.3416009 15.4594595,5.83314543 L15.4594595,6.6832018 L6.54054054,6.6832018 L6.54054054,5.83314543 Z M20.6324324,8.06087937 L20.6324324,21.2807215 C20.6324324,23.156708 19.0864865,24.680947 17.1837838,24.680947 L4.81621622,24.680947 C2.91351351,24.680947 1.36756757,23.156708 1.36756757,21.2807215 L1.36756757,8.06087937 L5.14324324,8.06087937 L5.14324324,10.1713641 C5.14324324,10.5524239 5.44054054,10.8455468 5.82702703,10.8455468 C6.21351351,10.8455468 6.51081081,10.5524239 6.51081081,10.1713641 L6.51081081,8.06087937 L15.4594595,8.06087937 L15.4594595,10.1713641 C15.4594595,10.5524239 15.7567568,10.8455468 16.1432432,10.8455468 C16.5297297,10.8455468 16.827027,10.5524239 16.827027,10.1713641 L16.827027,8.06087937 L20.6324324,8.06087937 Z" id="Shape"></path>
            </g>
        </g>
    </g>
</svg>